<svg width="150.000000" height="140.000000" viewBox="0 0 150 140" fill="none" xmlns="http://www.w3.org/2000/svg" xmlns:xlink="http://www.w3.org/1999/xlink">
	<desc>
			Created with Pixso.
	</desc>
	<defs/>
	<path id="Vector" d="M-0.31 99.11C-0.3 99.16 -0.28 99.22 -0.26 99.27C-0.25 99.3 -0.24 99.34 -0.23 99.37L11.18 119.13L11.21 119.16C11.23 119.19 11.25 119.22 11.28 119.26C11.32 119.3 11.36 119.33 11.41 119.37C11.44 119.39 11.46 119.42 11.49 119.44C11.5 119.44 11.52 119.45 11.53 119.45C11.64 119.51 11.77 119.54 11.9 119.55L57.03 119.55L68.2 138.88L68.23 138.91C68.25 138.94 68.27 138.97 68.3 139.01C68.34 139.05 68.38 139.09 68.43 139.12C68.46 139.14 68.48 139.17 68.51 139.19C68.52 139.2 68.54 139.2 68.55 139.2C68.67 139.27 68.79 139.3 68.92 139.3L137.36 139.3C137.5 139.3 137.63 139.27 137.74 139.2L137.83 139.14C137.92 139.09 137.99 139.02 138.05 138.93C138.06 138.91 138.09 138.9 138.1 138.88L149.51 119.13C149.52 119.11 149.52 119.1 149.53 119.08C149.55 119.04 149.56 119.01 149.57 118.98C149.58 118.94 149.59 118.91 149.6 118.87C149.61 118.83 149.61 118.79 149.61 118.76C149.61 118.74 149.62 118.73 149.62 118.71C149.62 118.69 149.61 118.68 149.61 118.66C149.61 118.62 149.6 118.59 149.6 118.55C149.6 118.51 149.58 118.48 149.57 118.44C149.56 118.4 149.55 118.37 149.53 118.34C149.52 118.32 149.52 118.31 149.51 118.29L126.94 79.2L138.1 59.86C138.11 59.84 138.11 59.83 138.12 59.81C138.14 59.78 138.15 59.75 138.16 59.71C138.17 59.67 138.18 59.64 138.19 59.6C138.2 59.57 138.2 59.53 138.2 59.49C138.2 59.47 138.21 59.46 138.21 59.44C138.21 59.42 138.2 59.41 138.2 59.39C138.2 59.35 138.19 59.32 138.19 59.28C138.19 59.24 138.17 59.21 138.16 59.17C138.15 59.14 138.14 59.11 138.12 59.07C138.11 59.05 138.11 59.04 138.1 59.02L103.9 -0.26C103.88 -0.29 103.85 -0.31 103.83 -0.34C103.79 -0.38 103.76 -0.43 103.72 -0.47C103.68 -0.5 103.63 -0.53 103.59 -0.56C103.54 -0.59 103.5 -0.61 103.45 -0.63C103.39 -0.65 103.33 -0.66 103.27 -0.67C103.24 -0.67 103.21 -0.69 103.17 -0.69L80.35 -0.69C80.33 -0.69 80.32 -0.68 80.3 -0.68C80.26 -0.68 80.23 -0.67 80.19 -0.67L80.07 -0.64C80.04 -0.63 80 -0.61 79.97 -0.6C79.94 -0.59 79.94 -0.59 79.92 -0.58C79.91 -0.56 79.9 -0.55 79.88 -0.55C79.85 -0.53 79.82 -0.5 79.79 -0.48C79.76 -0.45 79.73 -0.43 79.71 -0.4C79.69 -0.37 79.66 -0.34 79.64 -0.31C79.63 -0.3 79.62 -0.28 79.61 -0.27L57.04 38.83L34.73 38.83C34.71 38.83 34.7 38.84 34.68 38.84C34.64 38.84 34.61 38.85 34.57 38.85C34.53 38.85 34.49 38.87 34.46 38.88C34.42 38.89 34.39 38.9 34.36 38.92C34.34 38.93 34.33 38.93 34.31 38.94C34.29 38.95 34.29 38.96 34.27 38.97C34.24 38.99 34.2 39.01 34.18 39.04C34.15 39.06 34.12 39.09 34.1 39.12C34.08 39.15 34.05 39.18 34.03 39.21C34.02 39.22 34 39.23 34 39.25L-0.22 98.53C-0.23 98.56 -0.24 98.59 -0.25 98.63C-0.27 98.68 -0.29 98.73 -0.3 98.79C-0.31 98.84 -0.32 98.89 -0.32 98.95C-0.32 99 -0.32 99.06 -0.31 99.11ZM102.68 1.01L135.92 58.59L115.07 58.59L81.81 1.01L102.68 1.01ZM114.09 98.11L93.22 98.11L115.06 60.27L135.92 60.27L114.09 98.11ZM80.35 1.85L113.6 59.43L91.76 97.27L81.33 79.19L92.5 59.85C92.51 59.83 92.51 59.82 92.52 59.8C92.54 59.77 92.55 59.74 92.56 59.7C92.57 59.66 92.58 59.63 92.59 59.59C92.6 59.56 92.6 59.52 92.6 59.48C92.6 59.46 92.61 59.45 92.61 59.43C92.61 59.41 92.6 59.4 92.6 59.38C92.6 59.34 92.59 59.31 92.59 59.27C92.59 59.23 92.57 59.2 92.56 59.16C92.55 59.13 92.53 59.1 92.52 59.06C92.51 59.04 92.51 59.03 92.5 59.01L81.08 39.26C81.06 39.23 81.03 39.21 81.01 39.18C80.98 39.13 80.94 39.09 80.9 39.05C80.86 39.01 80.82 38.98 80.77 38.96C80.73 38.93 80.68 38.91 80.63 38.89C80.58 38.87 80.52 38.86 80.46 38.86C80.43 38.86 80.39 38.84 80.36 38.84L59 38.84L80.35 1.85ZM57.54 40.53L79.87 40.53L90.31 58.59L46.63 58.59L36.19 40.53L57.54 40.53ZM34.73 41.37L45.16 59.43L11.91 117.02L1.48 98.95L34.73 41.37ZM13.38 117.86L46.63 60.27L90.31 60.27L79.87 78.35L57.54 78.35C57.52 78.35 57.51 78.36 57.49 78.36C57.45 78.36 57.42 78.37 57.38 78.37L57.26 78.4C57.23 78.41 57.19 78.43 57.16 78.44C57.13 78.45 57.13 78.45 57.11 78.46C57.1 78.47 57.09 78.48 57.07 78.49C57.04 78.51 57.01 78.53 56.98 78.56C56.96 78.59 56.93 78.61 56.9 78.64C56.88 78.67 56.85 78.7 56.83 78.73C56.82 78.74 56.8 78.75 56.8 78.77L45.4 98.53C45.38 98.56 45.37 98.59 45.37 98.63C45.34 98.68 45.33 98.73 45.32 98.79C45.31 98.84 45.3 98.89 45.31 98.95C45.3 99 45.31 99.06 45.32 99.11C45.33 99.16 45.34 99.22 45.37 99.27C45.38 99.3 45.39 99.34 45.4 99.37L56.07 117.86L13.38 117.86ZM136.9 137.61L70.41 137.61L80.84 119.55L147.33 119.55L136.9 137.61ZM68.95 136.77L47.12 98.95L57.55 80.87L79.39 118.7L68.95 136.77ZM147.33 117.86L80.84 117.86L59 80.03L79.87 80.03L91.04 99.37L91.07 99.4C91.09 99.43 91.11 99.47 91.14 99.5C91.18 99.54 91.22 99.58 91.27 99.61C91.3 99.63 91.32 99.66 91.35 99.68C91.36 99.69 91.37 99.69 91.39 99.69C91.5 99.75 91.63 99.79 91.76 99.79L114.58 99.79C114.71 99.79 114.84 99.75 114.96 99.69L115.05 99.63C115.13 99.57 115.21 99.5 115.27 99.42C115.28 99.4 115.31 99.39 115.32 99.37L125.99 80.87L147.33 117.86Z" fill="#FFFFFF" fill-opacity="1.000000" fill-rule="nonzero"/>
</svg>
