<svg width="140.000000" height="122.000000" viewBox="0 0 140 122" fill="none" xmlns="http://www.w3.org/2000/svg" xmlns:xlink="http://www.w3.org/1999/xlink">
	<desc>
			Created with Pixso.
	</desc>
	<defs/>
	<path id="Vector" d="M0.02 107.78C0.03 107.83 0.04 107.88 0.07 107.93C0.07 107.96 0.08 107.99 0.09 108.02L7.37 120.64L7.4 120.67C7.42 120.7 7.45 120.73 7.47 120.76C7.51 120.8 7.55 120.83 7.59 120.87C7.62 120.89 7.63 120.92 7.66 120.93C7.67 120.93 7.69 120.94 7.7 120.94C7.81 120.99 7.93 121.02 8.05 121.03L131.89 121.03C132.01 121.02 132.13 120.99 132.24 120.94C132.27 120.92 132.29 120.9 132.32 120.88C132.4 120.83 132.47 120.76 132.52 120.68C132.53 120.66 132.55 120.65 132.57 120.63L139.85 108.01C139.86 108 139.86 107.98 139.87 107.97C139.89 107.94 139.91 107.9 139.91 107.87C139.92 107.84 139.93 107.8 139.94 107.77C139.95 107.74 139.96 107.7 139.95 107.67C139.95 107.65 139.96 107.64 139.96 107.62C139.96 107.6 139.95 107.59 139.95 107.57C139.95 107.55 139.94 107.5 139.94 107.47C139.94 107.44 139.92 107.4 139.91 107.37C139.9 107.33 139.89 107.3 139.87 107.27C139.86 107.26 139.86 107.24 139.85 107.23L77.94 -0.02C77.92 -0.05 77.9 -0.07 77.88 -0.09C77.85 -0.14 77.81 -0.18 77.77 -0.21C77.69 -0.27 77.61 -0.32 77.52 -0.36C77.47 -0.38 77.42 -0.39 77.36 -0.39C77.33 -0.39 77.3 -0.41 77.26 -0.41L62.7 -0.41C62.68 -0.41 62.67 -0.4 62.65 -0.4C62.63 -0.4 62.58 -0.39 62.55 -0.39L62.44 -0.36C62.4 -0.35 62.37 -0.34 62.34 -0.32C62.33 -0.31 62.31 -0.31 62.3 -0.31C62.29 -0.3 62.27 -0.29 62.26 -0.28C62.23 -0.26 62.2 -0.24 62.18 -0.22C62.15 -0.2 62.12 -0.17 62.1 -0.14C62.08 -0.11 62.06 -0.09 62.04 -0.06C62.02 -0.05 62.01 -0.04 62.01 -0.02L0.08 107.24C0.07 107.27 0.06 107.3 0.06 107.33C0.03 107.38 0.02 107.43 0.01 107.48C0 107.53 -0.01 107.58 0 107.63C0.01 107.68 0.01 107.73 0.02 107.78ZM76.81 1.16L137.82 106.84L31.28 106.84L37.65 95.8L117.34 95.8C117.46 95.8 117.59 95.76 117.69 95.7C117.7 95.69 117.72 95.7 117.73 95.69C117.76 95.67 117.78 95.65 117.8 95.63C117.84 95.6 117.88 95.56 117.92 95.52C117.95 95.48 117.98 95.44 118 95.4C118.03 95.36 118.05 95.32 118.06 95.27C118.08 95.22 118.09 95.17 118.09 95.11C118.09 95.08 118.11 95.05 118.11 95.01C118.11 94.99 118.1 94.98 118.1 94.96C118.1 94.91 118.09 94.86 118.07 94.81C118.06 94.76 118.04 94.71 118.02 94.66C118.01 94.65 118.01 94.63 118 94.62L64.05 1.16L76.81 1.16ZM131.45 119.46L9.42 119.46L62.7 27.17L69.07 38.21L29.23 107.23C29.22 107.24 29.22 107.25 29.22 107.27C29.2 107.32 29.18 107.37 29.17 107.42C29.15 107.47 29.14 107.52 29.14 107.57C29.14 107.59 29.13 107.6 29.13 107.62C29.13 107.64 29.15 107.68 29.15 107.72C29.15 107.77 29.16 107.83 29.18 107.88C29.2 107.93 29.22 107.97 29.24 108.01C29.26 108.05 29.29 108.09 29.32 108.13C29.36 108.17 29.4 108.2 29.44 108.24C29.47 108.26 29.48 108.29 29.51 108.3C29.52 108.31 29.54 108.3 29.55 108.31C29.65 108.37 29.77 108.4 29.9 108.41L137.8 108.41L131.45 119.46ZM101.41 94.23L38.55 94.23L69.98 39.79L101.41 94.23ZM62.7 1.95L115.97 94.23L103.23 94.23L63.39 25.21C63.37 25.2 63.36 25.19 63.36 25.17C63.33 25.13 63.29 25.09 63.26 25.05C63.22 25.02 63.18 24.98 63.14 24.95C63.13 24.94 63.11 24.93 63.1 24.92C63.07 24.91 63.04 24.9 63.01 24.89C62.96 24.87 62.91 24.86 62.86 24.84C62.76 24.83 62.66 24.83 62.56 24.84C62.51 24.86 62.46 24.87 62.41 24.89C62.38 24.9 62.35 24.91 62.32 24.92C62.31 24.94 62.29 24.95 62.28 24.95C62.24 24.98 62.2 25.02 62.16 25.05C62.12 25.09 62.08 25.13 62.06 25.17C62.04 25.19 62.03 25.2 62.03 25.21L8.07 118.68L1.69 107.64L62.7 1.95Z" fill="#FFFFFF" fill-opacity="1.000000" fill-rule="nonzero"/>
</svg>
