<svg width="121.000000" height="140.000000" viewBox="0 0 121 140" fill="none" xmlns="http://www.w3.org/2000/svg" xmlns:xlink="http://www.w3.org/1999/xlink">
	<desc>
			Created with Pixso.
	</desc>
	<defs/>
	<path id="Vector" d="M120.92 34.32L100.22 22.37L81.01 33.46L81.01 11.27L60.31 -0.68L39.61 11.27L39.61 33.45L20.4 22.36L-0.3 34.32L-0.3 58.22L18.9 69.31L-0.3 80.4L-0.3 104.31L20.39 116.26L39.6 105.17L39.6 127.34L60.3 139.29L80.99 127.34L80.99 105.17L100.2 116.26L120.92 104.31L120.92 80.4L101.71 69.31L120.92 58.22L120.92 34.32ZM100.22 24.09L118.69 34.75L81.13 56.49L81.01 35.18L100.22 24.09ZM79.52 36.04L79.64 57.36L61.06 68.13L61.06 23.66L79.52 13L79.52 36.04ZM41.1 13L59.56 23.66L59.56 68.13L41.1 57.44L41.1 13ZM20.39 24.09L39.6 35.18L39.6 56.56L1.94 34.75L20.39 24.09ZM1.19 57.36L1.19 36.05L38.86 57.86L20.4 68.45L1.19 57.36ZM1.19 103.45L1.19 82.13L19.64 92.79L19.64 114.11L1.19 103.45ZM1.94 80.83L20.77 69.96L40.36 58.72L58.82 69.41L20.4 91.49L1.94 80.83ZM59.56 137.14L41.1 126.48L41.1 104.31L59.56 93.65L59.56 137.14ZM41.1 102.59L39.98 103.24L21.14 114.12L21.14 92.8L59.56 70.72L59.56 91.93L41.1 102.59ZM60.31 22.37L41.85 11.71L60.31 1.05L78.76 11.71L60.31 22.37ZM79.51 126.48L61.06 137.14L61.06 93.65L79.51 104.31L79.51 126.48ZM99.47 114.11L80.63 103.23L79.51 102.58L61.06 91.92L61.06 70.71L99.47 92.79L99.47 114.11ZM119.43 103.45L100.97 114.11L100.97 92.61L119.43 82.12L119.43 103.45ZM118.67 80.83L100.06 91.41L61.8 69.42L80.38 58.65L98.73 69.31L99.35 69.67L99.72 69.89L99.84 69.96L118.67 80.83ZM119.43 57.36L100.22 68.45L81.88 57.79L119.44 36.05L119.44 57.36L119.43 57.36Z" fill="#FFFFFF" fill-opacity="1.000000" fill-rule="nonzero"/>
</svg>
