<svg width="140.000000" height="126.000000" viewBox="0 0 140 126" fill="none" xmlns="http://www.w3.org/2000/svg" xmlns:xlink="http://www.w3.org/1999/xlink">
	<desc>
			Created with Pixso.
	</desc>
	<defs/>
	<path id="Vector" d="M114.17 -0.62L87.99 14.37L88.04 53.41L51.61 13.86L24.91 -0.61L-0.35 13.66L-0.35 94.86L25.18 109.1L51.37 94.61L51.37 87.95L86.94 125.24L139.62 94.83L139.62 13.66L114.17 -0.62ZM90.44 17.17L115.11 31.32L115.11 82.79L90.48 56.06L90.44 17.17ZM2.1 16.47L24.46 29.38L86.07 95.59L86.09 120.78L24.04 55.71L24.04 105.65L2.1 93.43L2.1 16.47ZM48.92 85.6L48.92 93.18L26.37 105.65L26.37 61.77L49.06 85.6L48.92 85.6ZM137.29 93.44L88.52 121.58L88.5 94.64L25.99 27.47L3.33 14.39L24.95 2.17L50.12 15.81L117.56 89.01L117.56 29.91L91.67 15.07L114.24 2.16L137.29 15.07L137.29 93.44Z" fill="#FFFFFF" fill-opacity="1.000000" fill-rule="nonzero"/>
</svg>
