<svg width="139.000000" height="142.000000" viewBox="0 0 139 142" fill="none" xmlns="http://www.w3.org/2000/svg" xmlns:xlink="http://www.w3.org/1999/xlink">
	<desc>
			Created with Pixso.
	</desc>
	<defs/>
	<path id="Vector" d="M111.03 13.17C98.62 4.35 83.67 -0.18 68.45 0.26C53.22 0.7 38.56 6.09 26.68 15.61C14.79 25.13 6.34 38.27 2.59 53.03C-1.16 67.78 0.01 83.36 5.9 97.4C11.8 111.44 22.12 123.17 35.29 130.82C48.45 138.47 63.75 141.63 78.87 139.8C93.99 137.97 108.1 131.27 119.07 120.71L119.1 120.71L119.66 120.14C122.42 117.37 123.96 113.63 123.95 109.73C123.95 105.83 122.4 102.1 119.64 99.34C116.89 96.58 113.15 95.03 109.25 95.03C105.35 95.02 101.61 96.57 98.85 99.32L98.85 99.31C93.21 104.82 86.09 108.57 78.35 110.11C70.62 111.64 62.61 110.88 55.29 107.93C47.98 104.97 41.69 99.95 37.19 93.48C32.69 87.01 30.17 79.36 29.94 71.48C29.72 63.6 31.79 55.82 35.92 49.1C40.05 42.38 46.04 37.01 53.17 33.65C60.3 30.28 68.26 29.07 76.07 30.16C83.88 31.24 91.21 34.58 97.15 39.77L99.12 41.75C100.04 42.68 100.55 43.94 100.55 45.25C100.54 46.56 100.02 47.82 99.09 48.75C98.17 49.67 96.91 50.19 95.6 50.2C94.29 50.2 93.03 49.69 92.1 48.77L89.37 46.03L89.27 46.13C89.22 46.01 89.15 45.9 89.06 45.81C84.42 42.3 78.89 40.18 73.09 39.68C67.3 39.19 61.48 40.36 56.33 43.04C51.17 45.72 46.87 49.81 43.94 54.83C41.01 59.85 39.57 65.6 39.78 71.41C39.98 77.22 41.84 82.85 45.12 87.66C48.39 92.46 52.97 96.23 58.31 98.53C63.64 100.84 69.53 101.59 75.27 100.68C81.01 99.78 86.38 97.27 90.76 93.44C91.58 92.52 92.03 91.32 92.02 90.09C92.02 88.85 91.55 87.67 90.72 86.76C88.75 84.63 85.38 85.19 83.71 86.56C80.66 89.03 76.98 90.6 73.09 91.09C69.19 91.57 65.24 90.95 61.68 89.29C58.12 87.64 55.1 85.02 52.97 81.72C50.83 78.43 49.66 74.61 49.59 70.68C49.52 66.76 50.56 62.9 52.59 59.53C54.61 56.17 57.54 53.45 61.04 51.67C64.54 49.9 68.47 49.14 72.38 49.49C76.29 49.84 80.02 51.29 83.15 53.66L83.18 53.64L84.95 55.41C87.71 58.16 91.45 59.7 95.35 59.7C99.25 59.69 102.99 58.14 105.74 55.38C108.5 52.63 110.05 48.89 110.05 44.99C110.06 41.09 108.52 37.35 105.77 34.59L105.55 34.37C105.51 34.21 105.44 34.07 105.33 33.95C98.16 27.09 89.14 22.51 79.38 20.76C69.62 19.01 59.56 20.19 50.46 24.13C41.37 28.08 33.64 34.62 28.24 42.93C22.85 51.25 20.03 60.98 20.14 70.89C20.25 80.81 23.28 90.47 28.86 98.66C34.43 106.86 42.3 113.23 51.48 116.98C60.66 120.72 70.74 121.67 80.46 119.71C90.18 117.75 99.1 112.97 106.12 105.96C106.13 105.92 106.15 105.89 106.17 105.86C107.07 105.01 108.25 104.54 109.49 104.52C110.73 104.51 111.92 104.96 112.84 105.78C113.77 106.6 114.35 107.74 114.47 108.97C114.59 110.2 114.25 111.43 113.52 112.43C104.38 121.75 92.47 127.86 79.56 129.82C66.66 131.78 53.47 129.49 41.98 123.29C30.49 117.1 21.32 107.33 15.87 95.47C10.42 83.62 8.97 70.31 11.74 57.55C14.52 44.8 21.37 33.29 31.25 24.77C41.14 16.25 53.53 11.17 66.56 10.31C79.58 9.45 92.53 12.85 103.46 19.99C114.38 27.14 122.68 37.64 127.11 49.92C127.84 51.95 129.55 54.91 133.04 54.69C133.72 54.69 134.39 54.53 134.99 54.23C135.59 53.93 136.12 53.49 136.53 52.95C136.93 52.41 137.21 51.79 137.33 51.12C137.46 50.46 137.43 49.78 137.24 49.13C132.65 34.61 123.45 21.99 111.03 13.17Z" stroke="#FFFFFF" stroke-opacity="1.000000" stroke-width="1.999899" stroke-linejoin="round"/>
</svg>
