<svg width="140.000000" height="122.000000" viewBox="0 0 140 122" fill="none" xmlns="http://www.w3.org/2000/svg" xmlns:xlink="http://www.w3.org/1999/xlink">
	<desc>
			Created with Pixso.
	</desc>
	<defs/>
	<path id="Vector" d="M115.89 100.96C115.9 100.95 115.9 100.93 115.91 100.92C115.93 100.89 115.95 100.85 115.95 100.82C115.96 100.79 115.97 100.75 115.98 100.72C115.99 100.69 116 100.65 115.99 100.62C115.99 100.6 116 100.59 116 100.57C116 100.55 115.99 100.54 115.99 100.52C115.99 100.5 115.98 100.45 115.98 100.42C115.98 100.39 115.96 100.35 115.95 100.32C115.94 100.28 115.93 100.25 115.91 100.22C115.9 100.21 115.9 100.19 115.89 100.18L104.68 80.75L127.1 80.75C127.22 80.75 127.34 80.72 127.45 80.66C127.48 80.64 127.5 80.62 127.53 80.6C127.61 80.55 127.68 80.48 127.73 80.4C127.74 80.38 127.76 80.37 127.78 80.35L139.14 60.69C139.14 60.68 139.14 60.66 139.16 60.65C139.17 60.62 139.19 60.58 139.2 60.55C139.21 60.52 139.22 60.48 139.23 60.45C139.23 60.41 139.24 60.38 139.24 60.35C139.24 60.33 139.25 60.32 139.25 60.3C139.25 60.28 139.24 60.27 139.24 60.25C139.24 60.23 139.23 60.18 139.23 60.15C139.23 60.12 139.21 60.08 139.2 60.05C139.18 60.01 139.17 59.98 139.16 59.95C139.14 59.94 139.14 59.92 139.14 59.91L127.78 40.24C127.76 40.22 127.74 40.19 127.72 40.17C127.69 40.13 127.65 40.09 127.61 40.05C127.57 40.02 127.52 39.99 127.48 39.96C127.44 39.94 127.4 39.92 127.35 39.9C127.3 39.88 127.24 39.87 127.19 39.87C127.16 39.87 127.13 39.85 127.1 39.85L104.68 39.85L115.89 20.43C115.9 20.42 115.9 20.4 115.91 20.39C115.93 20.36 115.95 20.32 115.95 20.29C115.96 20.26 115.97 20.22 115.98 20.19C115.99 20.16 116 20.12 115.99 20.09C115.99 20.07 116 20.06 116 20.04C116 20.02 115.99 20.01 115.99 19.99C115.99 19.97 115.98 19.92 115.98 19.89C115.98 19.86 115.96 19.82 115.95 19.79C115.94 19.75 115.93 19.72 115.91 19.69C115.9 19.68 115.9 19.66 115.89 19.65L104.55 -0.02C104.53 -0.04 104.51 -0.07 104.49 -0.09C104.46 -0.13 104.42 -0.17 104.39 -0.21C104.35 -0.24 104.3 -0.27 104.26 -0.3C104.22 -0.32 104.17 -0.34 104.13 -0.36C104.08 -0.38 104.02 -0.39 103.97 -0.39C103.94 -0.39 103.91 -0.41 103.88 -0.41L81.18 -0.41C81.16 -0.41 81.15 -0.4 81.13 -0.4C81.11 -0.4 81.06 -0.39 81.03 -0.39L80.92 -0.36C80.88 -0.35 80.85 -0.33 80.83 -0.32C80.81 -0.31 80.8 -0.31 80.79 -0.31L80.76 -0.28C80.73 -0.26 80.7 -0.24 80.68 -0.22C80.65 -0.19 80.62 -0.17 80.6 -0.14C80.58 -0.11 80.56 -0.09 80.54 -0.06C80.52 -0.05 80.51 -0.03 80.51 -0.02L69.29 19.41L58.07 -0.02C58.06 -0.04 58.04 -0.07 58.01 -0.09C57.98 -0.13 57.94 -0.17 57.9 -0.21C57.87 -0.24 57.83 -0.26 57.78 -0.29C57.74 -0.31 57.7 -0.33 57.65 -0.35C57.6 -0.37 57.55 -0.38 57.49 -0.38C57.46 -0.38 57.43 -0.4 57.4 -0.4L34.7 -0.4C34.68 -0.4 34.67 -0.39 34.65 -0.39C34.63 -0.39 34.58 -0.38 34.55 -0.38L34.44 -0.35C34.41 -0.34 34.38 -0.32 34.35 -0.31C34.34 -0.3 34.33 -0.3 34.31 -0.3C34.3 -0.28 34.29 -0.27 34.27 -0.27C34.24 -0.25 34.22 -0.23 34.19 -0.21C34.16 -0.18 34.14 -0.16 34.11 -0.13C34.09 -0.1 34.07 -0.08 34.05 -0.05C34.04 -0.04 34.03 -0.02 34.02 -0.01L22.68 19.66C22.66 19.69 22.65 19.72 22.65 19.75C22.63 19.8 22.61 19.85 22.6 19.9C22.58 20 22.58 20.1 22.6 20.2C22.61 20.25 22.63 20.3 22.65 20.35C22.65 20.38 22.66 20.41 22.68 20.44L33.89 39.86L11.47 39.86C11.45 39.86 11.44 39.87 11.42 39.87C11.4 39.87 11.35 39.88 11.32 39.88L11.21 39.91C11.18 39.92 11.15 39.94 11.12 39.95C11.11 39.96 11.09 39.96 11.08 39.97L11.05 40C11.02 40.02 11 40.04 10.97 40.06C10.94 40.09 10.91 40.11 10.89 40.14C10.87 40.17 10.85 40.19 10.83 40.22C10.82 40.23 10.81 40.25 10.8 40.26L-0.56 59.93C-0.57 59.96 -0.58 59.99 -0.59 60.02C-0.61 60.07 -0.62 60.12 -0.64 60.17C-0.65 60.27 -0.65 60.37 -0.64 60.47C-0.62 60.52 -0.61 60.57 -0.59 60.62C-0.58 60.65 -0.57 60.68 -0.56 60.71L10.8 80.37L10.83 80.4C10.85 80.43 10.87 80.47 10.9 80.49C10.94 80.53 10.98 80.56 11.02 80.6C11.05 80.62 11.06 80.65 11.09 80.66C11.1 80.67 11.12 80.67 11.13 80.67C11.24 80.73 11.36 80.76 11.48 80.76L33.9 80.76L22.7 100.19C22.68 100.22 22.67 100.25 22.67 100.28C22.65 100.33 22.63 100.38 22.62 100.43C22.6 100.53 22.6 100.63 22.62 100.73C22.63 100.78 22.65 100.83 22.67 100.88C22.67 100.91 22.68 100.94 22.7 100.97L34.04 120.63L34.07 120.66C34.09 120.69 34.12 120.72 34.14 120.75C34.18 120.79 34.22 120.82 34.26 120.86C34.29 120.88 34.3 120.91 34.33 120.92C34.34 120.93 34.36 120.93 34.37 120.93C34.48 120.99 34.6 121.02 34.72 121.02L57.42 121.02C57.55 121.02 57.67 120.99 57.77 120.93C57.8 120.91 57.82 120.89 57.85 120.87C57.93 120.82 58 120.75 58.05 120.67C58.06 120.65 58.08 120.64 58.1 120.62L69.32 101.2L80.54 120.62L80.57 120.65C80.59 120.68 80.61 120.71 80.64 120.74C80.68 120.78 80.72 120.81 80.76 120.85C80.79 120.87 80.8 120.9 80.83 120.91C80.84 120.92 80.85 120.92 80.87 120.92C80.97 120.98 81.09 121.01 81.22 121.01L103.92 121.01C104.04 121.01 104.16 120.98 104.27 120.92C104.3 120.9 104.32 120.88 104.35 120.86C104.43 120.81 104.5 120.74 104.55 120.66C104.56 120.64 104.58 120.63 104.6 120.61L115.89 100.96ZM103.41 119.44L82.52 119.44L92.96 101.35L113.85 101.35L103.41 119.44ZM56.92 119.44L36.03 119.44L58.37 80.75L79.27 80.75L56.92 119.44ZM12.79 79.17L23.24 61.08L67.91 61.08L57.46 79.17L12.79 79.17ZM11.43 42.2L21.88 60.3L11.43 78.39L0.98 60.3L11.43 42.2ZM24.23 20.03L34.67 1.93L57.01 40.62L46.57 58.72L24.23 20.03ZM81.17 1.94L91.61 20.04L69.28 58.73L58.83 40.63L81.17 1.94ZM103.41 1.15L113.85 19.25L92.96 19.25L82.52 1.15L103.41 1.15ZM126.66 41.42L137.11 59.52L92.43 59.52L81.99 41.42L126.66 41.42ZM80.62 42.2L90.6 59.51L70.62 59.51L80.62 42.2ZM67.91 59.51L47.93 59.51L57.91 42.2L67.91 59.51ZM69.27 61.87L79.26 79.17L59.27 79.17L69.27 61.87ZM70.63 61.09L91.51 61.09L113.84 99.78L92.95 99.78L70.63 61.09ZM93.33 61.09L137.1 61.09L126.65 79.18L103.77 79.18L93.33 61.09ZM81.99 39.84L92.97 20.82L113.86 20.82L102.88 39.84L81.99 39.84ZM57.91 39.06L36.03 1.15L56.92 1.15L68.37 20.97L57.91 39.06ZM45.2 59.51L23.23 59.51L12.78 41.41L34.75 41.41L45.2 59.51ZM56.55 80.75L34.67 118.66L24.23 100.57L35.66 80.75L56.55 80.75ZM80.62 81.53L91.6 100.56L81.16 118.65L70.17 99.62L80.62 81.53Z" fill="#FFFFFF" fill-opacity="1.000000" fill-rule="nonzero"/>
</svg>
